<?xml version="1.0" encoding="UTF-8" standalone="no"?>
<!DOCTYPE svg PUBLIC "-//W3C//DTD SVG 1.1//EN" "http://www.w3.org/Graphics/SVG/1.1/DTD/svg11.dtd">
<svg version="1.1" xmlns="http://www.w3.org/2000/svg" xmlns:xlink="http://www.w3.org/1999/xlink" preserveAspectRatio="xMidYMid meet" viewBox="0 0 1200 800"><defs><path d="M646.18 278.8L652.73 282.86L658.56 287.86L663.56 293.69L667.63 300.24L670.66 307.41L672.56 315.1L673.21 323.21L672.56 331.32L670.66 339.01L667.63 346.18L663.56 352.73L658.56 358.56L652.73 363.56L646.18 367.63L639.01 370.66L631.32 372.56L623.21 373.21L615.11 372.56L607.41 370.66L600.24 367.63L593.69 363.56L587.86 358.56L582.86 352.73L578.8 346.18L575.76 339.01L573.87 331.32L573.21 323.21L573.87 315.1L575.76 307.41L578.8 300.24L582.86 293.69L587.86 287.86L593.69 282.86L600.24 278.8L607.41 275.76L615.11 273.87L623.21 273.21L631.32 273.87L639.01 275.76L639.01 275.76L646.18 278.8ZM607.9 293.6L603.53 296.31L599.65 299.65L596.31 303.53L593.6 307.9L591.58 312.68L590.31 317.81L589.88 323.21L590.31 328.61L591.58 333.74L593.6 338.52L596.31 342.89L599.65 346.78L603.53 350.11L607.9 352.82L612.68 354.84L617.81 356.11L623.21 356.54L628.62 356.11L633.74 354.84L638.52 352.82L642.89 350.11L646.78 346.78L650.11 342.89L652.82 338.52L654.84 333.74L656.11 328.61L656.54 323.21L656.11 317.81L654.84 312.68L652.82 307.9L650.11 303.53L646.78 299.65L642.89 296.31L638.52 293.6L633.74 291.58L628.62 290.31L623.21 289.88L617.81 290.31L612.68 291.58L612.68 291.58L607.9 293.6Z" id="iK2Bdi4yw"></path><path d="M650 402.29L596.43 402.29" id="f3Gf9Lky5q"></path><path d="M623.21 427.75L623.21 370.61" id="bfjfIFGQt"></path></defs><g visibility="inherit"><g visibility="inherit"><g visibility="inherit"><use xlink:href="#iK2Bdi4yw" opacity="1" fill="#b52358" fill-opacity="1"></use></g><g visibility="inherit"><g><use xlink:href="#f3Gf9Lky5q" opacity="1" fill-opacity="0" stroke="#b52358" stroke-width="18" stroke-opacity="1"></use></g></g><g visibility="inherit"><g><use xlink:href="#bfjfIFGQt" opacity="1" fill-opacity="0" stroke="#b52358" stroke-width="18" stroke-opacity="1"></use></g></g></g></g></svg>