<?xml version="1.0" encoding="UTF-8" standalone="no"?>
<svg
   xmlns:dc="http://purl.org/dc/elements/1.1/"
   xmlns:cc="http://creativecommons.org/ns#"
   xmlns:rdf="http://www.w3.org/1999/02/22-rdf-syntax-ns#"
   xmlns:svg="http://www.w3.org/2000/svg"
   xmlns="http://www.w3.org/2000/svg"
   xmlns:xlink="http://www.w3.org/1999/xlink"
   xmlns:sodipodi="http://sodipodi.sourceforge.net/DTD/sodipodi-0.dtd"
   xmlns:inkscape="http://www.inkscape.org/namespaces/inkscape"
   version="1.1"
   preserveAspectRatio="xMidYMid meet"
   viewBox="0 0 134.23 134.58"
   id="svg3713"
   sodipodi:docname="male.svg"
   width="134.23"
   height="134.58"
   inkscape:version="0.92.0 r15299">
  <metadata
     id="metadata3717">
    <rdf:RDF>
      <cc:Work
         rdf:about="">
        <dc:format>image/svg+xml</dc:format>
        <dc:type
           rdf:resource="http://purl.org/dc/dcmitype/StillImage" />
      </cc:Work>
    </rdf:RDF>
  </metadata>
  <sodipodi:namedview
     pagecolor="#ffffff"
     bordercolor="#666666"
     borderopacity="1"
     objecttolerance="10"
     gridtolerance="10"
     guidetolerance="10"
     inkscape:pageopacity="0"
     inkscape:pageshadow="2"
     inkscape:window-width="640"
     inkscape:window-height="480"
     id="namedview3715"
     showgrid="false"
     fit-margin-top="0"
     fit-margin-left="0"
     fit-margin-right="0"
     fit-margin-bottom="0"
     inkscape:zoom="0.26166667"
     inkscape:cx="57.84"
     inkscape:cy="17.74"
     inkscape:window-x="276"
     inkscape:window-y="1247"
     inkscape:window-maximized="0"
     inkscape:current-layer="svg3713" />
  <defs
     id="defs3699">
    <path
       d="m 606.01,319.86 6.57,2.53 6.09,3.41 5.53,4.21 4.89,4.94 4.17,5.57 3.38,6.15 2.51,6.64 1.56,7.05 0.54,7.38 -0.54,7.39 -1.56,7.05 -2.51,6.63 -3.38,6.15 -4.17,5.58 -4.89,4.93 -5.53,4.21 -6.09,3.41 -6.57,2.53 -6.99,1.58 -7.32,0.54 -7.31,-0.54 -6.99,-1.58 -6.58,-2.53 -6.09,-3.41 -5.52,-4.21 -4.89,-4.93 -4.17,-5.58 -3.38,-6.15 -2.51,-6.63 -1.56,-7.05 -0.54,-7.39 0.54,-7.38 1.56,-7.05 2.51,-6.64 3.38,-6.15 4.17,-5.57 4.89,-4.94 5.52,-4.21 6.09,-3.41 6.58,-2.53 6.99,-1.58 7.31,-0.54 7.32,0.54 z m -23.84,15.96 -4.39,1.69 -4.06,2.27 -3.68,2.81 -3.26,3.29 -2.78,3.72 -2.25,4.09 -1.68,4.43 -1.04,4.7 -0.36,4.92 0.36,4.93 1.04,4.69 1.68,4.43 2.25,4.1 2.78,3.72 3.26,3.29 3.68,2.8 4.06,2.28 4.39,1.68 4.66,1.05 4.87,0.37 4.88,-0.37 4.66,-1.05 4.38,-1.68 4.06,-2.28 3.69,-2.8 3.26,-3.29 2.78,-3.72 2.25,-4.1 1.67,-4.43 1.05,-4.69 0.35,-4.93 -0.35,-4.92 -1.05,-4.7 -1.67,-4.43 -2.25,-4.09 -2.78,-3.72 -3.26,-3.29 -3.69,-2.81 -4.06,-2.27 -4.38,-1.69 -4.66,-1.05 -4.88,-0.36 -4.87,0.36 z"
       id="jOdSYemV5"
       inkscape:connector-curvature="0" />
    <path
       d="m 631.48,295.24 44.91,-12.08 -12.08,44.91 -10.4,-10.41 -30.22,30.22 -12.05,-12.04 30.22,-30.22 z"
       id="bXAT4kpvt"
       inkscape:connector-curvature="0" />
  </defs>
  <g
     visibility="inherit"
     id="g3711"
     style="visibility:inherit"
     transform="translate(-542.16,-283.16)">
    <g
       visibility="inherit"
       id="g3709"
       style="visibility:inherit">
      <g
         visibility="inherit"
         id="g3703"
         style="visibility:inherit">
        <use
           xlink:href="#jOdSYemV5"
           id="use3701"
           style="opacity:1;fill:#124788;fill-opacity:1"
           x="0"
           y="0"
           width="100%"
           height="100%" />
      </g>
      <g
         visibility="inherit"
         id="g3707"
         style="visibility:inherit">
        <use
           xlink:href="#bXAT4kpvt"
           id="use3705"
           style="opacity:1;fill:#114788;fill-opacity:1"
           x="0"
           y="0"
           width="100%"
           height="100%" />
      </g>
    </g>
  </g>
</svg>
