<?xml version="1.0" encoding="UTF-8" standalone="no"?>
<!DOCTYPE svg PUBLIC "-//W3C//DTD SVG 1.1//EN" "http://www.w3.org/Graphics/SVG/1.1/DTD/svg11.dtd">
<svg version="1.1" xmlns="http://www.w3.org/2000/svg" xmlns:xlink="http://www.w3.org/1999/xlink" preserveAspectRatio="xMidYMid meet" viewBox="0 0 1200 800"><defs><path d="M627.83 319.9L634.38 323.96L640.21 328.96L645.21 334.79L649.28 341.34L652.31 348.51L654.21 356.21L654.86 364.31L654.21 372.42L652.31 380.11L649.28 387.28L645.21 393.83L640.21 399.66L634.38 404.66L627.83 408.73L620.66 411.76L612.97 413.66L604.86 414.31L596.76 413.66L589.06 411.76L581.89 408.73L575.34 404.66L569.51 399.66L564.51 393.83L560.45 387.28L557.41 380.11L555.52 372.42L554.86 364.31L555.52 356.21L557.41 348.51L560.45 341.34L564.51 334.79L569.51 328.96L575.34 323.96L581.89 319.9L589.06 316.86L596.76 314.97L604.86 314.31L612.97 314.97L620.66 316.86L620.66 316.86L627.83 319.9ZM589.55 334.7L585.18 337.41L581.3 340.75L577.96 344.63L575.25 349L573.23 353.78L571.96 358.91L571.53 364.31L571.96 369.71L573.23 374.84L575.25 379.62L577.96 383.99L581.3 387.88L585.18 391.21L589.55 393.92L594.33 395.94L599.46 397.21L604.86 397.64L610.27 397.21L615.39 395.94L620.17 393.92L624.54 391.21L628.43 387.88L631.76 383.99L634.47 379.62L636.49 374.84L637.76 369.71L638.2 364.31L637.76 358.91L636.49 353.78L634.47 349L631.76 344.63L628.43 340.75L624.54 337.41L620.17 334.7L615.39 332.68L610.27 331.41L604.86 330.98L599.46 331.41L594.33 332.68L594.33 332.68L589.55 334.7Z" id="d5d3Kz9cuO"></path></defs><g visibility="inherit"><g visibility="inherit"><g visibility="inherit"><use xlink:href="#d5d3Kz9cuO" opacity="1" fill="#7c7779" fill-opacity="1"></use></g></g></g></svg>